<svg width="216" height="32" viewBox="0 0 216 32" fill="none" xmlns="http://www.w3.org/2000/svg">
<path fill-rule="evenodd" clip-rule="evenodd" d="M4 16C4 9.37259 9.37259 4 16 4C22.6275 4 28 9.37259 28 16C28 22.6275 22.6275 28 16 28C9.37259 28 4 22.6275 4 16ZM6.76119 17.3333C7.40816 21.8564 11.298 25.3333 16 25.3333C20.702 25.3333 24.5919 21.8564 25.2388 17.3333H19.7724C19.2232 18.8869 17.7416 20 16 20C14.2584 20 12.7767 18.8869 12.2276 17.3333H6.76119ZM25.2388 14.6667C24.5919 10.1436 20.702 6.66667 16 6.66667C11.298 6.66667 7.40816 10.1436 6.76119 14.6667H12.2276C12.7767 13.1131 14.2584 12 16 12C17.7416 12 19.2232 13.1131 19.7724 14.6667H25.2388ZM16 17.3333C16.7364 17.3333 17.3333 16.7364 17.3333 16C17.3333 15.2636 16.7364 14.6667 16 14.6667C15.2636 14.6667 14.6667 15.2636 14.6667 16C14.6667 16.7364 15.2636 17.3333 16 17.3333Z" fill="white"/>
<path d="M41.5 23V9H43.18L50.64 20.22V9H52.32V23H50.64L43.18 11.78V23H41.5ZM58.5081 23.24C57.6948 23.24 57.0148 23.1 56.4681 22.82C55.9215 22.5267 55.5148 22.1467 55.2481 21.68C54.9815 21.2 54.8481 20.68 54.8481 20.12C54.8481 19.44 55.0215 18.8667 55.3681 18.4C55.7281 17.92 56.2281 17.56 56.8681 17.32C57.5215 17.0667 58.2881 16.94 59.1681 16.94H61.8281C61.8281 16.3133 61.7281 15.7933 61.5281 15.38C61.3415 14.9533 61.0615 14.6333 60.6881 14.42C60.3281 14.2067 59.8748 14.1 59.3281 14.1C58.6881 14.1 58.1348 14.26 57.6681 14.58C57.2015 14.9 56.9148 15.3733 56.8081 16H55.0881C55.1681 15.28 55.4081 14.68 55.8081 14.2C56.2215 13.7067 56.7415 13.3333 57.3681 13.08C57.9948 12.8133 58.6481 12.68 59.3281 12.68C60.2615 12.68 61.0348 12.8533 61.6481 13.2C62.2748 13.5333 62.7415 14.0067 63.0481 14.62C63.3548 15.22 63.5081 15.9333 63.5081 16.76V23H62.0081L61.9081 21.22C61.7748 21.5 61.6015 21.7667 61.3881 22.02C61.1881 22.26 60.9481 22.4733 60.6681 22.66C60.3881 22.8333 60.0681 22.9733 59.7081 23.08C59.3615 23.1867 58.9615 23.24 58.5081 23.24ZM58.7681 21.82C59.2348 21.82 59.6548 21.7267 60.0281 21.54C60.4148 21.34 60.7415 21.0733 61.0081 20.74C61.2748 20.3933 61.4748 20.0133 61.6081 19.6C61.7548 19.1867 61.8281 18.7533 61.8281 18.3V18.24H59.3081C58.6548 18.24 58.1281 18.32 57.7281 18.48C57.3281 18.6267 57.0415 18.84 56.8681 19.12C56.6948 19.3867 56.6081 19.6933 56.6081 20.04C56.6081 20.4 56.6881 20.7133 56.8481 20.98C57.0215 21.2467 57.2681 21.4533 57.5881 21.6C57.9215 21.7467 58.3148 21.82 58.7681 21.82ZM68.6359 23L64.8159 12.92H66.5759L69.6159 21.38L72.6759 12.92H74.3959L70.5759 23H68.6359ZM80.195 23.24C79.2483 23.24 78.4083 23.02 77.675 22.58C76.955 22.14 76.3883 21.5267 75.975 20.74C75.5617 19.94 75.355 19.0133 75.355 17.96C75.355 16.8933 75.555 15.9667 75.955 15.18C76.3683 14.3933 76.9417 13.78 77.675 13.34C78.4217 12.9 79.275 12.68 80.235 12.68C81.2217 12.68 82.055 12.9 82.735 13.34C83.4283 13.78 83.955 14.36 84.315 15.08C84.6883 15.7867 84.875 16.5667 84.875 17.42C84.875 17.5533 84.875 17.6933 84.875 17.84C84.875 17.9867 84.8683 18.1533 84.855 18.34H76.615V17.04H83.235C83.195 16.12 82.8883 15.4 82.315 14.88C81.755 14.36 81.0483 14.1 80.195 14.1C79.6217 14.1 79.0883 14.2333 78.595 14.5C78.115 14.7533 77.7283 15.1333 77.435 15.64C77.1417 16.1333 76.995 16.7533 76.995 17.5V18.06C76.995 18.8867 77.1417 19.58 77.435 20.14C77.7417 20.7 78.135 21.12 78.615 21.4C79.1083 21.68 79.635 21.82 80.195 21.82C80.9017 21.82 81.4817 21.6667 81.935 21.36C82.4017 21.04 82.735 20.6133 82.935 20.08H84.595C84.435 20.68 84.155 21.22 83.755 21.7C83.355 22.18 82.855 22.56 82.255 22.84C81.6683 23.1067 80.9817 23.24 80.195 23.24ZM91.0636 27.64C90.1569 27.64 89.3503 27.52 88.6436 27.28C87.9503 27.0533 87.4103 26.7 87.0236 26.22C86.6369 25.74 86.4436 25.1467 86.4436 24.44C86.4436 24.1333 86.5036 23.8067 86.6236 23.46C86.7569 23.1133 86.9769 22.7733 87.2836 22.44C87.6036 22.1067 88.0503 21.8067 88.6236 21.54L89.7836 22.22C89.0769 22.5133 88.6169 22.8467 88.4036 23.22C88.1903 23.6067 88.0836 23.96 88.0836 24.28C88.0836 24.72 88.2103 25.0867 88.4636 25.38C88.7169 25.6733 89.0703 25.8933 89.5236 26.04C89.9769 26.1867 90.4903 26.26 91.0636 26.26C91.6369 26.26 92.1303 26.18 92.5436 26.02C92.9569 25.86 93.2769 25.6333 93.5036 25.34C93.7303 25.0467 93.8436 24.7 93.8436 24.3C93.8436 23.8333 93.6703 23.44 93.3236 23.12C92.9769 22.8133 92.3169 22.6333 91.3436 22.58C90.5569 22.5267 89.8969 22.4533 89.3636 22.36C88.8303 22.2667 88.3903 22.16 88.0436 22.04C87.6969 21.9067 87.4036 21.76 87.1636 21.6C86.9369 21.44 86.7303 21.2733 86.5436 21.1V20.64L88.4836 18.72L89.9436 19.24L87.9436 21.04L88.2036 20.34C88.3503 20.4467 88.4903 20.5467 88.6236 20.64C88.7569 20.7333 88.9369 20.8133 89.1636 20.88C89.3903 20.9467 89.7036 21.0067 90.1036 21.06C90.5169 21.1133 91.0569 21.1667 91.7236 21.22C92.6436 21.2867 93.3769 21.4467 93.9236 21.7C94.4836 21.9533 94.8836 22.2933 95.1236 22.72C95.3769 23.1467 95.5036 23.6533 95.5036 24.24C95.5036 24.8133 95.3436 25.3533 95.0236 25.86C94.7169 26.38 94.2369 26.8067 93.5836 27.14C92.9303 27.4733 92.0903 27.64 91.0636 27.64ZM91.0436 19.84C90.2036 19.84 89.4836 19.68 88.8836 19.36C88.2969 19.04 87.8503 18.6133 87.5436 18.08C87.2369 17.5333 87.0836 16.9267 87.0836 16.26C87.0836 15.5933 87.2369 14.9933 87.5436 14.46C87.8636 13.9267 88.3169 13.5 88.9036 13.18C89.4903 12.8467 90.2036 12.68 91.0436 12.68C91.8836 12.68 92.5969 12.8467 93.1836 13.18C93.7703 13.5 94.2169 13.9267 94.5236 14.46C94.8303 14.9933 94.9836 15.5933 94.9836 16.26C94.9836 16.9267 94.8303 17.5333 94.5236 18.08C94.2169 18.6133 93.7703 19.04 93.1836 19.36C92.5969 19.68 91.8836 19.84 91.0436 19.84ZM91.0436 18.46C91.7636 18.46 92.3303 18.2733 92.7436 17.9C93.1569 17.5267 93.3636 16.98 93.3636 16.26C93.3636 15.5533 93.1569 15.0133 92.7436 14.64C92.3303 14.2667 91.7636 14.08 91.0436 14.08C90.3369 14.08 89.7636 14.2667 89.3236 14.64C88.8969 15.0133 88.6836 15.5533 88.6836 16.26C88.6836 16.98 88.8969 17.5267 89.3236 17.9C89.7503 18.2733 90.3236 18.46 91.0436 18.46ZM92.6836 14.34L92.1836 12.92H96.3036V14.18L92.6836 14.34ZM101.516 23.24C100.703 23.24 100.023 23.1 99.4759 22.82C98.9293 22.5267 98.5226 22.1467 98.2559 21.68C97.9893 21.2 97.8559 20.68 97.8559 20.12C97.8559 19.44 98.0293 18.8667 98.3759 18.4C98.7359 17.92 99.2359 17.56 99.8759 17.32C100.529 17.0667 101.296 16.94 102.176 16.94H104.836C104.836 16.3133 104.736 15.7933 104.536 15.38C104.349 14.9533 104.069 14.6333 103.696 14.42C103.336 14.2067 102.883 14.1 102.336 14.1C101.696 14.1 101.143 14.26 100.676 14.58C100.209 14.9 99.9226 15.3733 99.8159 16H98.0959C98.1759 15.28 98.4159 14.68 98.8159 14.2C99.2293 13.7067 99.7493 13.3333 100.376 13.08C101.003 12.8133 101.656 12.68 102.336 12.68C103.269 12.68 104.043 12.8533 104.656 13.2C105.283 13.5333 105.749 14.0067 106.056 14.62C106.363 15.22 106.516 15.9333 106.516 16.76V23H105.016L104.916 21.22C104.783 21.5 104.609 21.7667 104.396 22.02C104.196 22.26 103.956 22.4733 103.676 22.66C103.396 22.8333 103.076 22.9733 102.716 23.08C102.369 23.1867 101.969 23.24 101.516 23.24ZM101.776 21.82C102.243 21.82 102.663 21.7267 103.036 21.54C103.423 21.34 103.749 21.0733 104.016 20.74C104.283 20.3933 104.483 20.0133 104.616 19.6C104.763 19.1867 104.836 18.7533 104.836 18.3V18.24H102.316C101.663 18.24 101.136 18.32 100.736 18.48C100.336 18.6267 100.049 18.84 99.8759 19.12C99.7026 19.3867 99.6159 19.6933 99.6159 20.04C99.6159 20.4 99.6959 20.7133 99.8559 20.98C100.029 21.2467 100.276 21.4533 100.596 21.6C100.929 21.7467 101.323 21.82 101.776 21.82ZM109.115 23V12.92H110.635L110.735 14.36C111.055 13.84 111.482 13.4333 112.015 13.14C112.562 12.8333 113.155 12.68 113.795 12.68C114.315 12.68 114.782 12.7533 115.195 12.9C115.622 13.0333 115.995 13.2467 116.315 13.54C116.635 13.82 116.895 14.18 117.095 14.62C117.442 14.0067 117.915 13.5333 118.515 13.2C119.128 12.8533 119.782 12.68 120.475 12.68C121.248 12.68 121.922 12.84 122.495 13.16C123.082 13.4667 123.528 13.94 123.835 14.58C124.155 15.2067 124.315 16.0067 124.315 16.98V23H122.655V17.16C122.655 16.1467 122.448 15.3867 122.035 14.88C121.622 14.3733 121.042 14.12 120.295 14.12C119.775 14.12 119.308 14.26 118.895 14.54C118.482 14.8067 118.155 15.2 117.915 15.72C117.675 16.24 117.555 16.88 117.555 17.64V23H115.875V17.16C115.875 16.1467 115.668 15.3867 115.255 14.88C114.842 14.3733 114.255 14.12 113.495 14.12C112.988 14.12 112.528 14.26 112.115 14.54C111.715 14.8067 111.395 15.2 111.155 15.72C110.915 16.24 110.795 16.88 110.795 17.64V23H109.115ZM126.907 23V9H132.147C133.281 9 134.221 9.19333 134.967 9.58C135.714 9.96667 136.267 10.4867 136.627 11.14C136.987 11.7933 137.167 12.54 137.167 13.38C137.167 14.1533 136.994 14.8667 136.647 15.52C136.301 16.1733 135.754 16.7067 135.007 17.12C134.261 17.52 133.307 17.72 132.147 17.72H129.607V23H126.907ZM129.607 15.54H131.987C132.854 15.54 133.474 15.3467 133.847 14.96C134.234 14.56 134.427 14.0333 134.427 13.38C134.427 12.6867 134.234 12.1533 133.847 11.78C133.474 11.3933 132.854 11.2 131.987 11.2H129.607V15.54ZM143.385 23.24C142.425 23.24 141.558 23.02 140.785 22.58C140.025 22.1267 139.418 21.5067 138.965 20.72C138.525 19.92 138.305 19.0067 138.305 17.98C138.305 16.9267 138.525 16.0067 138.965 15.22C139.418 14.42 140.031 13.8 140.805 13.36C141.578 12.9067 142.445 12.68 143.405 12.68C144.378 12.68 145.245 12.9067 146.005 13.36C146.778 13.8 147.385 14.42 147.825 15.22C148.278 16.0067 148.505 16.92 148.505 17.96C148.505 19 148.278 19.92 147.825 20.72C147.385 21.5067 146.778 22.1267 146.005 22.58C145.231 23.02 144.358 23.24 143.385 23.24ZM143.385 20.9C143.838 20.9 144.238 20.7933 144.585 20.58C144.945 20.3667 145.225 20.04 145.425 19.6C145.638 19.16 145.745 18.6133 145.745 17.96C145.745 17.3067 145.638 16.7667 145.425 16.34C145.225 15.9 144.945 15.5733 144.585 15.36C144.238 15.1333 143.845 15.02 143.405 15.02C142.978 15.02 142.585 15.1333 142.225 15.36C141.865 15.5733 141.578 15.9 141.365 16.34C141.165 16.7667 141.065 17.3067 141.065 17.96C141.065 18.6133 141.165 19.16 141.365 19.6C141.578 20.04 141.858 20.3667 142.205 20.58C142.565 20.7933 142.958 20.9 143.385 20.9ZM157.432 23L153.132 17.48L156.992 12.92H160.172L155.192 18.62V16.48L160.792 23H157.432ZM150.832 23V8.6H153.532V23H150.832ZM166.394 23.24C165.381 23.24 164.481 23.0267 163.694 22.6C162.921 22.16 162.314 21.5533 161.874 20.78C161.448 19.9933 161.234 19.0867 161.234 18.06C161.234 17.0067 161.448 16.08 161.874 15.28C162.314 14.4667 162.921 13.8333 163.694 13.38C164.468 12.9133 165.368 12.68 166.394 12.68C167.394 12.68 168.268 12.9 169.014 13.34C169.761 13.78 170.341 14.3733 170.754 15.12C171.168 15.8667 171.374 16.7133 171.374 17.66C171.374 17.7933 171.374 17.9467 171.374 18.12C171.374 18.28 171.361 18.4467 171.334 18.62H163.154V16.98H168.654C168.614 16.3267 168.381 15.8133 167.954 15.44C167.541 15.0667 167.021 14.88 166.394 14.88C165.941 14.88 165.521 14.9867 165.134 15.2C164.748 15.4 164.441 15.7133 164.214 16.14C164.001 16.5667 163.894 17.1067 163.894 17.76V18.34C163.894 18.8867 163.994 19.3667 164.194 19.78C164.408 20.18 164.701 20.4933 165.074 20.72C165.448 20.9333 165.881 21.04 166.374 21.04C166.868 21.04 167.274 20.9333 167.594 20.72C167.928 20.5067 168.174 20.2333 168.334 19.9H171.094C170.908 20.5267 170.594 21.0933 170.154 21.6C169.714 22.1067 169.174 22.5067 168.534 22.8C167.894 23.0933 167.181 23.24 166.394 23.24ZM173.586 23V12.92H175.966L176.186 14.26C176.506 13.78 176.926 13.4 177.446 13.12C177.979 12.8267 178.586 12.68 179.266 12.68C179.772 12.68 180.226 12.7467 180.626 12.88C181.026 13.0133 181.379 13.2067 181.686 13.46C182.006 13.7133 182.266 14.0333 182.466 14.42C182.839 13.8733 183.326 13.4467 183.926 13.14C184.526 12.8333 185.179 12.68 185.886 12.68C186.766 12.68 187.499 12.86 188.086 13.22C188.672 13.5667 189.112 14.0733 189.406 14.74C189.712 15.4067 189.866 16.2267 189.866 17.2V23H187.186V17.44C187.186 16.64 187.026 16.0267 186.706 15.6C186.399 15.1733 185.919 14.96 185.266 14.96C184.839 14.96 184.459 15.0667 184.126 15.28C183.792 15.4933 183.532 15.8 183.346 16.2C183.172 16.6 183.086 17.08 183.086 17.64V23H180.386V17.44C180.386 16.64 180.226 16.0267 179.906 15.6C179.586 15.1733 179.092 14.96 178.426 14.96C178.012 14.96 177.639 15.0667 177.306 15.28C176.986 15.4933 176.732 15.8 176.546 16.2C176.372 16.6 176.286 17.08 176.286 17.64V23H173.586ZM197.174 23.24C196.214 23.24 195.347 23.02 194.574 22.58C193.814 22.1267 193.207 21.5067 192.754 20.72C192.314 19.92 192.094 19.0067 192.094 17.98C192.094 16.9267 192.314 16.0067 192.754 15.22C193.207 14.42 193.82 13.8 194.594 13.36C195.367 12.9067 196.234 12.68 197.194 12.68C198.167 12.68 199.034 12.9067 199.794 13.36C200.567 13.8 201.174 14.42 201.614 15.22C202.067 16.0067 202.294 16.92 202.294 17.96C202.294 19 202.067 19.92 201.614 20.72C201.174 21.5067 200.567 22.1267 199.794 22.58C199.02 23.02 198.147 23.24 197.174 23.24ZM197.174 20.9C197.627 20.9 198.027 20.7933 198.374 20.58C198.734 20.3667 199.014 20.04 199.214 19.6C199.427 19.16 199.534 18.6133 199.534 17.96C199.534 17.3067 199.427 16.7667 199.214 16.34C199.014 15.9 198.734 15.5733 198.374 15.36C198.027 15.1333 197.634 15.02 197.194 15.02C196.767 15.02 196.374 15.1333 196.014 15.36C195.654 15.5733 195.367 15.9 195.154 16.34C194.954 16.7667 194.854 17.3067 194.854 17.96C194.854 18.6133 194.954 19.16 195.154 19.6C195.367 20.04 195.647 20.3667 195.994 20.58C196.354 20.7933 196.747 20.9 197.174 20.9ZM204.621 23V12.92H207.001L207.201 14.56C207.507 14 207.941 13.5467 208.501 13.2C209.074 12.8533 209.754 12.68 210.541 12.68C211.381 12.68 212.087 12.8533 212.661 13.2C213.234 13.5467 213.667 14.0533 213.961 14.72C214.267 15.3867 214.421 16.2067 214.421 17.18V23H211.741V17.44C211.741 16.64 211.567 16.0267 211.221 15.6C210.887 15.1733 210.367 14.96 209.661 14.96C209.207 14.96 208.801 15.0667 208.441 15.28C208.094 15.4933 207.821 15.8 207.621 16.2C207.421 16.5867 207.321 17.06 207.321 17.62V23H204.621Z" fill="#F9FAFB"/>
</svg>
